<svg xmlns="http://www.w3.org/2000/svg" width="1320" height="2000" viewBox="0 0 1320 2000">
  <defs>
    <style>
      .cls-1 {
        fill: #fff;
        stroke: #fff;
        stroke-width: 1px;
        fill-rule: evenodd;
      }
    </style>
  </defs>
  <path id="모양_3_1" data-name="모양 3 1" class="cls-1" d="M1193,885c48.12,339.64-176.16,499.91-300,559-144.852,66.45-267.5,48.25-282,48-7,0-29.865,1.07-43,5-119.217,35.66-187.941,117.83-196,164,46,2.5,45,3,45,3s55.25-112,193-120c346.708,15.06,511.87-174.88,584-357,47.68-120.38,46.4-240.474,33-297C1201.15,885.844,1226.33,890.333,1193,885ZM127,885c-48.124,339.64,176.161,499.91,300,559a557.549,557.549,0,0,0,112.138,37.68c-62.6,36.36-4,3.89-63.715,36.41C283.913,1461.11,179.431,1321.91,126,1187,78.325,1066.62,79.6,946.526,93,890,118.851,885.844,93.667,890.333,127,885Zm777.591,701.8c25.8,27.01,40.89,54.04,44.409,74.2-46,2.5-45,3-45,3s-15.016-30.44-48.91-60.72C903.981,1586.84,855.3,1602.73,904.591,1586.8ZM669,149V447h45l1-149,19-11L720,164Zm93,124V461h71L816,298ZM651,149V447H606l-1-149-19-11,14-123ZM558,273V461H487l17-163ZM459.161,1529.1C355.668,1493.8,277.974,1438.28,191,1344,73.026,1204.87,57.1,1033.24,62,972c-38,8.5-38,8-38,8,1.494,144.95,46.161,272.46,125,382,66.825,91.07,152.252,163.1,265.593,206.04M660,1612c245.588-4.86,402.72-102.43,511-250,78.84-109.54,123.51-237.05,125-382,0,0,0,.5-38-8,4.9,61.24-11.03,232.87-129,372-116.77,126.57-216.8,180.28-385,212-25.087,3.15-55.512,2.41-84,4-81,0-52,.67-83-1-21,8.33-39.667,17.67-66,38C548.333,1604,560.667,1608.33,660,1612Zm0-134c-280.008,0-507-226.99-507-507S379.992,464,660,464s507,226.992,507,507S940.008,1478,660,1478ZM839.646,535.858c-5.38-4.042-8.155-12.588-14.971-14.97l-10.978-1c-9.337-2.42-22.058-4.274-30.939-6.986l-16.967-2c-6.779-2.635-14.17-12.718-18.962-17.964-3.826-.056-33.872,2.964-33.933,2.994-4.854,1.654-6.269,6.869-10.979,8.982-3.473,1.559-8.782.687-11.976,2.994-1.224.885-.559,2.145-1,3.993,3.434,1.831,10.1,4.516,11.976,7.984h-1c-3.052,2.242-8.539,2.117-13.972,2v3.992c3.372,1.7,5.045,4.025,7.984,5.988l-2,4.99a81.433,81.433,0,0,1-19.961,7.985c-13.94,3.425-29.584-2.888-42.915,0H613.093c-3.967.911-10.734,1.836-13.973,3.992-4.588,3.055-7.31,9.907-12.974,11.976-5.809,2.122-9.836.227-15.969,2-7.763,2.239-13.331,8.391-18.962,12.975,0.629,1.75.192,0.969,1,2,2.781,2.261,14.114,5.755,15.968,4.99,0.762-1.437.529-4.212,1-6.986,3.5-1.814,3.954-3.434,8.982-3.993a110.919,110.919,0,0,0,10.979,12.975c-0.63,1.75-.193.969-1,2-1.292,2.463.428,0.68-2,2-5.447,4.226-15.759,3.453-23.953,4.99v5.988c2.277,1.223,2.246,1.635,5.988,2,3.85,2.486,8.951-.566,13.973-1v2c0.8,1.178.771,1.678,1,3.993-10.913,6.058,1.8,10.3-16.967,9.98-4.8-4.427-17.178-7.157-17.965,2.994,2.914,1.834,2.9,2.733,7.985,2.994,3.257-3.158,9.881-1.676,12.974,1,0.75,1.071.6,0.944,1,2.994-1.259,1.356-1.362,1.765-2,3.992,2.413,1.3,2.828,1.8,6.986,2,2.936-2.812,7.432-3.431,10.979-2.994v2h-1c-0.964,2.97-2.513.449-3.992,4.99h-1c-0.988,1.008.984,0.987,1,1l13.972,10.979a25.663,25.663,0,0,0-2,4.99c5.6,3.427,13.678,16.714,7.984,24.951-1.893,5.663-6.583,5.449-7.984,10.978,5.1,3.092,5.037,6.12,3.992,12.975,5.117,2.809,11.42,1.611,16.967,3.992,0.775,6.534,1.827,10.007,2.994,15.968-3.065,1.662-6.885,5.579-4.991,8.982,2.093,4.563,5.632,2.329,6.987,7.985-7.895,4.214-26.122,6.725-29.941,14.97-1.872,2.957-1.846,10.465-4.99,11.977-2.5,1.2-3.176-.863-4.991,0-1.146,1.751-1.582,6.752-2,8.982L557.2,786.364l-6.986,2c-2.267,1.585-7.59,10.3-9.981,12.975-1.75-.63-0.969-0.193-2-1-1.759-2.622-1.067-5.323-3.992-6.987-1.071-.75-0.944-0.6-2.994-1a11.522,11.522,0,0,1-2.994,2l4.99,5.989c-0.629,1.75-.192.969-1,2-1.292.875-2.462,0.892-4.99,1-5.168,2.376-12.7-4.184-16.967-5.988-6.145-2.6-15.773,1.351-22.954-1-4.819-1.576-9.764-6.526-14.971-7.984-16.92-4.736-39.4,17.021-46.907,11.977-0.751-1.071-.6-0.944-1-2.994,5.568-7.709-1.443-12.873,1-23.953,0.609-2.768,1.758-6.282,2-9.981a6.083,6.083,0,0,0,2-2c3.224,0.8,5.446,2.375,7.984,1,12.023-4.327,21.569-23.3,34.931-26.946,4.954-1.352,11.941,2.32,15.969,2l4.99-10.979c14.175-2.441,39.6-17.948,45.909-27.945q1-4.989,2-9.98c2.284-4.564,14.025-13.5,20.959-13.972,2.213,3.594,6.1,9.024,10.978,9.98v-2c0.8-1.177.772-1.678,1-3.992-3.026-1.975-5.454-5.675-8.982-6.986-6.069-2.256-10.323-1.606-15.968-3.993-2.871-1.213-6.387-4.81-8.983-5.988-3.371-1.53-14.158-3.486-14.97-2.994-3.8,1.74-2.136,4.875-4.99,6.986l-8.983,2.994-22.954,23.953c-3,1.833-8.321-.775-11.977,1-7.276,3.529-8.441,18.883-19.96,20.959-2.521-2.592-4.109-2.374-4.991-6.986,2.8-2.449,5.229-4.344,5.989-8.983-11.489.569-17.419,11.2-27.945,10.979-1.506-4.544-3.8-3.126-4.99-7.985C434.6,690.794,440.673,677.9,448.417,664.6l2.994,1c2.156,4.375,2.972,11.156,7.985,12.975,10.606,7.178,31.273-12.786,30.939-23.953l-2.994-1c-3.637-2.456-11.006-2.11-16.967-2-1.222-2.277-1.635-2.246-2-5.988,1.677-1.71,2.663-3.685,2-4.99-2-6.334-5.685-6.874-11.976-8.983-2.855-8.877-3.237-16.307-9.981-20.958-3.11-2.146-6.363-2.528-8.982-4.991-18.749.308-22.215,12.092-31.937,20.959-6.057,5.524-12.639,10.776-17.965,16.967-2.159,2.51-2.56,6.806-4.99,8.982-2.872,2.572-6.542.618-10.978,2-5.621,1.746-12.773,7.61-13.972,13.972a21.427,21.427,0,0,0,6.986,1c3.482-3.36,9.27-4.9,15.968-4.99a34.128,34.128,0,0,0,6.986,10.979c1.751-.63.97-0.193,2-1,7.449-2.709,7.742-9.541,17.964-9.981,4.673,3.6,15.894,1.237,20.959,2v5.989c-3.713,5.224-3.934,13.559-7.984,18.962-6.62,8.829-24.365,7.256-24.951,21.957a45.85,45.85,0,0,1,9.98,5.988c-0.629,1.751-.192.97-1,2-3.939,5.114-11.707,11.272-16.967,14.971-3.1,2.182-7.723,3.051-9.98,5.988-6.994,9.1-10.222,28.605-17.964,35.929-2.073,1.96-7.465,6.1-9.981,6.986l-9.98,1c-2.6,3.4,1.033,13.67-1,16.967-2.178,2.413-8.22,5.4-10.978,3.992l-3-1c-0.091-9.719-3.378-16.752-2-24.951l19.961-2.994a14.086,14.086,0,0,0,1-3.992c-8.794-8.389-5.235-25.145-7.984-39.921-4.135-2.5-6.4-5.931-11.977-6.987v2c3.431,3.068,6.489,5.858,6.987,11.977-1.876,2.753-1.96,7.424-3.992,9.98-4.088,3.38-9.639,1.441-10.979,7.984,2.576,2.609,4.487,4.133,4.99,8.983-2.3,3.766-.567,8.049-4.99,9.98-2.555,1.753-6.18.64-8.982,0-3.348-6.768-9.095-12.128-9.98-20.959,3.541-2.374,3.578-3.849,9.98-3.992v1c1.008,0.988.986-.983,1-1,0.8-1.177.771-1.678,1-3.992-4.46-5.05-5.365-16.275-11.976-18.963-0.8-.063-3.184.794-6.987,1-2.5-4.877-3.126-8.94-10.978-8.982-1.415.959-3.267,0.975-5.988,1-1.933-3.434-3.214-7.061-7.984-7.984-155.4,235.5-23.94,470.286-22.955,472.066,41.2,74.39,96.9,131.82,166.671,177.65,55.472,35.2,109.217,57.34,194.616,64.87,0.8-1.17.772-1.67,1-3.99-7.454-5.93-9.707-17.71-14.97-25.95-3.927-6.14-10.3-13.98-12.975-20.96-1.662-4.33-.688-7.69-2.994-10.97-8.876-12.63-30.592-13.36-32.935-32.94,2.267-1.47,3-2.1,3.992-4.99-4.958-2.79-10.147-7.2-15.968-8.98-7.222-2.21-12.955-.85-18.963-3.99-4.491-2.35-6.949-8.27-10.978-10.98-4.087-2.76-11.66-5.54-15.969-6.99-5.665-1.9-10.628-.15-16.966-1.99-10.5-3.05-22.5-10-32.935-13.98-9.236-3.52-19.694-3.08-27.945-7.98-4.592-2.73-7.762-8.7-10.978-12.97-3.13-4.16-8.857-6.91-11.977-10.98-4.746-6.19-8.536-12.44-12.974-18.97-2.736-4.02-7.454-8.02-9.98-11.97q-2.5-6.99-4.991-13.97-3.492-2.505-6.986-4.99c-2.188-3.13-5.061-13.48-3.992-15.97,1.926-4.01,5.689-4.4,8.982-6.99l4.99-6.99c-0.19-11.51-1.183-24.98,5.989-29.94,3.4-2.51,9.826-.81,13.972-2.99,5.02-2.64,7.028-7.25,13.973-8.98-0.011-3.16-1.421-1.87,2-3-0.392,2.93-1.633,1.25,1,3,12.964,8.3,28.722-14.26,34.931-16.97h15.968c4.577-1.92,4.1-6.04,10.979-6.99,5.99,5.53,17.578,12.68,25.948,14.97,4.494,1.24,7.7-1.63,9.981-1.99h1v1c8.33,1.58,17.676-.36,26.947,1.99q8.981,3,17.964,5.99c10.26,2.5,20.973-1.96,27.945,3,0.8,1.01.354,0.27,1,1.99,5.176,8.88,1.278,28.63,8.982,34.93,5.048,3.84,10.545,2.26,15.969,1-0.658,6.38,28.8,26.49,36.927,22.95,4.523-1.8,5.418-7.64,5.988-10.97,6.262-1.68,10.122-5.28,17.965-5.99,8.228,6.97,18.556,10.01,30.939,12.97h8.982c2.276,0.5,11.3,2.69,14.971,1,3.7-1.7,5.569-6.5,8.982-6.99,6.626-.93,17.066.48,23.953-0.99,6.546-10.86,10.172-23.07,8.982-39.92-1.751-.63-0.97-0.2-2-1-5.813,1.4-12.891,4.68-17.965,5.99-7.842,2.02-9.62-5.96-16.966-3-2.95,1.19-2.7,3.42-7.985,3.99-3.119-2.4-9.543-3.11-13.972-3.99-3.744-6.64-8.6-11.06-13.972-15.97,0.011-12.67,10.812-10.31,20.958-11.97,1.076-2.87,1.219-4.62,3.992-5.99,3.259-2.68,6.755-.55,11.977-2,6.108-1.69,12.955-6.33,18.962-7.98,4.128-1.14,10.314.59,12.975,1,14.544,2.22,27.177-2.97,33.933-8.99-0.81-4.53-2.211-9.24-5.988-10.97-3.954-3.5-21.75-9.02-27.945-9.98,1.341-6.71,5.749-8.28,6.986-17.97a14.461,14.461,0,0,0-3.992-1c-7.832,7.12-15.337,5.83-14.971,21.96h-1c-1.767,2.03-5.287,4.91-6.986,3.99-3.037-2.48-2.639-6.82-3.992-10.98a30.344,30.344,0,0,0-13.972-2.99c-7.017,10.94-17.535,22.01-17.965,38.92,3.149,1.75,5.7,3.23,6.986,6.99h-1c-1.671,1.38-15.9,6.66-18.962,5.99-10.621-2.33-16.5-1.51-16.967,11.97,3.334,2.12,4,3.32,3.992,8.99-3.784,2.24-6.282,6.13-9.98,7.98-0.966.25-.379,0.78-1,0-8.57-2.53-19.356-15.63-21.957-23.95-1.933-6.19,2.874-11.27,0-16.97-2.018-4-7.435-6.31-10.978-8.98-8.4-6.34-15.274-23.15-24.951-26.95v1c-3.739,2.38-4.189,4.53-3.992,10.98,1.166,1.35,1.576,3.9,2.994,4.99,1.452,1.11,3.937.56,4.99,1.99q1,4.995,2,9.98c1.867,3.58,6.56,4.16,8.982,6.99,1.507,1.76-.379,4.39,0,4.99,2.329,1.66,4.658,3.33,6.987,4.99-3.359,5.43-1.463,6.63-1,14.97-6.172,4.13-9.628,11.09-18.963,11.98-1.874-1.89-4.334-2.85-5.988-4.99-0.75-1.07-.6-0.95-1-3,5.886,0.23,12.8.54,15.968-1.99,1.985-2.15,2.065-4.57,2-8.99-4.137-4.36-7.161-10.35-11.976-13.97-6.66-5-13.2-9.14-17.965-15.97-4.706-6.73-4.565-16.8-14.97-17.96-8.288,6.68-20.178.41-29.941,0-8.165,13.63-13.107,5.25-23.953,11.98-6.046,3.75-7.5,11.98-12.974,15.96-9.28,7.55-28.575,2.76-38.923,0-1.826-3.25-2.709-8.43-4.991-11.97q-2.993-2.505-5.988-4.99c-1.319-3.01,1.5-4.88,1-6.99-0.63-2.65-3.208-3.08-3.992-6.98,5.514-5.29,10.458-11.74,12.975-19.97,1.165-3.8.146-6.37,2-8.98,2.284-2.1,5.782-2.76,9.98-2.99q12.974,8.985,25.949,17.96c3.908,1.24,10.978-1.13,11.976-2.99v-14.97c7.3-11.15-5.241-17.27-6.986-24.95,2.087-1.12,1.828-1.43,4.99-2,2.321,2.49,8.011,6.39,10.978,4.99,2.463-1.29.68,0.43,2-1.99,0.75-1.08.6-.95,1-3,4.852,0.94,4.154,2.96,8.982,3.99l13.972-10.97c4.887-1.88,8.934.19,12.975-2l2.994-3.993h5.988l3.992-6.986c3.935-2.463,12.229,1.624,14.971,0,2.842-1.968,3.008-3.007,2.994-7.985,2.2-4-.558-12.755,1-16.966,3.737-2.117,6.3-5.04,10.978-5.988-1.4,9.709-12.59,30.223,1,32.935,2.148-1.72,7.344-2.8,9.98-1,3.65,1.725,2.6,3.362,7.985,3.992,10.241-9.745,15.756-1.764,24.95,0,2.05-3.243,5.336-4.577,6.987-7.984,4.928-8.809-2.481-20.315,10.978-20.959,1.035,3.254,1.78,3.91,4.99,4.99v-1c2.678-2.836,1.915-6.958,1-10.978a15.653,15.653,0,0,0-4.99-1c-1.734,1.319-1.6,1.724-2.994,1-0.8-1.019-.354-0.274-1-2,4.023-2.2,4.988-6.052,8.982-7.985,3.664-2.273,15.119-2.2,18.963-2.994,1.28-2.068,2.073-2.3,2.994-4.99h-1c-1.59-2.7-4.742-2.214-8.982-2-2.31,2.245-5.839,2.5-8.983,3.992-16.331,7.757-17.208-12.506-16.966-25.949,3.089-2.074,17.352-21.284,16.966-21.956-1.541-2.634-3.866-2.177-7.984-2-1.019.8-.273,0.354-2,1-2.146,3.748-3.369,8.952-5.988,12.974-6.114,9.386-16.572,12.115-16.967,27.945,3.552,3.332,5.021,6.868,4.99,13.972-8.872,5.512-11.39,14.29-13.972,25.949-22.769,6.125-20.721-10.36-23.953-28.943a14.145,14.145,0,0,0-3.992-1,22.412,22.412,0,0,1-13.972,5.988c-1.948-2.165-3.915-4.882-5.989-6.986,1.818-5.714-.852-15.1,1-21.957,0.61-2.257,2.315-5.1,3-7.984,3.16-.914,31.292-15.229,32.935-16.966q1-2.994,2-5.988c3.535-5.632,12.093-12.514,13.972-18.963q-0.5-3.991-1-7.984c14.608-9.128,31.368-20.569,47.906-21.957,1.731,1.438,4.722,2.13,5.988,3.992,0.987,1.454-.309,2.973,1,3.992,1.892,1.475,4.542-.214,6.986,1l2.994,3.992c10.047,5.417,28.128,4.666,28.943,18.963a11.7,11.7,0,0,0-2,4.99c-7.221,3.223-14.956.768-22.955,2v2c5.637,3.389,5.515,8.5,7.985,14.971,2.373,1.046,5.23,2.268,6.986,3.992,1.75-.63.969-0.193,2-1,0.75-1.071.6-.944,1-2.994-2.878-1.831-3.6-2.417-3.992-6.986h2c1.511-.729,6.456,1.67,7.984,1,3.093-5.972-1.8-12.653,6.986-16.967,1.006-.691,3.991-1.285,4.99-2,0.8-1.019.355-.274,1-2-3.623-2.828-6.529-9.121-6.986-14.971,2.72-1.7,2.493-2.531,6.986-2.994,1.8,2.564,2.421,1.636,3,5.989-2.019,1.733-1.865,2.141-2,5.988,2.277,1.222,2.247,1.635,5.989,2,1.669-10.447,6.2-22.974,14.97-25.949a8.877,8.877,0,0,0,2.994,2.994c2.984-11.128,11.915-8.606,14.971-14.97-2.169-1.988-3.328-3.316-3.992-6.987,6.08-4.7,14.894-5.637,22.954-5.988-0.371-2.071-.241-1.921-1-2.994-2.789-2.007-6.151-.16-9.98-2-5.635-2.7-10.692-21.341-10.978-28.943l2.994-1c1.177-.8,1.678-0.772,3.992-1,5.6,6.737,31.178,27.553,31.937,33.933,1.14,1.687,1.064,4.887,1,7.984-7.217,4.52-11.2,9.683-10.978,21.957a6.1,6.1,0,0,1,2,2h1v-1c1.933-1.664,1.664-1.436,2-4.99-2.435-3.568.073-7.775,1-10.978,4.931-2.222,7.439-4.618,10.978-7.985-0.118-11.266-6.469-13.773-8.982-21.956a10.957,10.957,0,0,0,2.994-2c3.018,0.734,3.52,1.46,6.986,2v-1c-1.809-.785-5.049-2.554-6.986-3-5.848-1.329-6.908,3.132-10.978,1-5.807-2-9.59-8.276-13.973-11.977,1.342-3.7,2.917-2.928,3.992-6.986,0,0-5.155-21.225-4.99-21.957,0.422-1.877,3.157-4.285,2-7.984-0.988-3.147-5.651-4.949-6.986-7.984-3.405-7.741-1.038-16.774-1-26.947-3.875-2.435-8.017-6.67-8.982-11.977,3.089-1.22,7.437-1.948,8.982-4.99,0.187-.489.347-5,1-6.986l9.98-1a67.184,67.184,0,0,0,13.973,9.98c0.33-10.237,5.221-16.681,5.988-24.95-2.427-2.766-4.881-6.05-5.988-9.981,4.089-2.183,14.936-9.5,15.968-13.972h-2c-2.481-1.731-5.093-1.648-6.986-3.992-1.267-2.143.467-7.227-1-9.981-1.523-2.862-9.709-2.924-12.975-3.992-4.955-9-3.533-19.537-7.984-29.941-1.785-4.172-7.377-6.465-8.982-9.98V580.77c-2.076-4.5-11.44-8.764-15.969-10.979,0.007-2.714-.039-4.588-1-5.988-1.07-.75-0.943-0.6-2.994-1-1.542,1.927-2.452,2.778-3.992,2-16.926-4.6-30.017-27.292-42.915-37.925q0.5-1.5,1-2.994c4.712-1.243,6.321-2.867,12.974-2.994,6.377,7.111,9.552,11.267,23.953,10.978,2.987-5.546,2.6-11.1,11.976-10.978l17.965,5.988H801.72c3.476,1.135,6.224,5.166,8.983,6.986,7.331,4.836,14.924,6.875,26.947,6.986a10.934,10.934,0,0,1,2-2.994v-2Zm-2,565.882h2.994c7.6,5.41,28.015-4.11,27.945-12.97-3.576-3.86-4.472-10.03-7.985-13.97-3.055-3.43-5.548-.06-6.986-5.99,2.515-2.19,5.149-4.01,5.988-7.99a6.075,6.075,0,0,1-2-1.99l-4.99.99c-3.652.23-1.845-1.74-4.99-2.99-3.327.33-6.654,0.67-9.98,1-1.12-5.53-3.341-8.11-6.987-10.98a29.1,29.1,0,0,0,2-8.98c2.413-1.3,2.828-1.8,6.987-2,1.834-1.23,5.692-1.08,8.982-1,0.84-2.38.4-1.64,2-2.99v-4.99c-2.994.33-5.988,0.67-8.982,1-1.933-2.95-4.645-4.52-6.986-6.99-12.378,4.9-25.071,16.62-24.951,33.93,4.612,3.67,6.3,11.3,9.98,15.97,5.952,7.55,16.747.42,16.967,14.97C832.464,1090.87,836.205,1096.9,837.65,1101.74Zm90.82-498.016c-1.457-5.674-7.555-13.1-10.978-17.964-5.466-7.765-13.605-9.887-22.955-13.973-10.324-4.511-21.416-11.657-31.937-15.968l-16.966-3.992c-6.723-2.525-11.022-5.764-20.959-5.988-1.752,1.146-6.752,1.582-8.982,2v2c7.678-.368,9.579-0.6,14.97,2-0.467,3.34-.507,2.644,0,5.988,8.292,5.443,14.193,9.017,28.943,8.982,5.142,8.862,11.6,14.387,18.963,20.959,5.089,4.544,7.611,12.884,12.974,16.966,7.556,5.751,15.52,8.838,23.953,13.973,5.045,3.072,8.935,7.823,15.969,8.982a14.145,14.145,0,0,0,1-3.992C924.17,615.1,930.887,613.132,928.47,603.724Zm114.77,100.8c-0.24,1.271,1.41,6.725,0,9.98-1.39,3.217-3.53,2.031-3.99,7.984,5.28,5.82,7.18,15.856,11.98,21.957,1.75-.63.97-0.193,1.99-1,4.12-1.266,4.9-2.614,4.99-7.984C1051.31,727.722,1052.94,709.326,1043.24,704.526ZM1123.09,973l-6.99-1c-0.33,1-.66,2-1,2.994-1.86,2.9-1.06,9-2.99,11.977-1.07.75-.95,0.6-3,1-3.87-6.506-12.96-5.954-21.95-6.987a2.821,2.821,0,0,1-1,1c0.27,13.684-4.11,24.2-6.99,34.932q-1.485,14.475-2.99,28.94c-3.65,12.81-9.76,24.49-12.98,37.93-2.4,10.03,3.04,26.04,1,33.93-0.78,3.01-3.83,6.37-4.99,8.98-2.59,5.87-.78,9.44-8.98,9.98-3.4-2.62-7.47-2.07-11.98-3.99-10.31-4.4-18.17-15.82-22.95-25.95-1.75.63-.97,0.19-2,1-1.94,2.48-1.99,6.4-3.99,8.98-1.25,1.62-4.5,2.48-5.99,3.99h-5.985c-2.336-4.58-5.892-4.34-12.975-3.99-3.751,2.32-9.4,1.79-12.974,3.99-4.182,2.59-7.809,7.37-11.977,9.99-9.9,6.2-19.953,9.78-29.94,15.96-4.615,2.86-6.685,6.21-13.973,6.99-2.193-2.3-3.386-2.83-7.984-2.99-4.218,6.57-9.5,10.24-20.959,9.98-9.039,5.71-18-3.51-22.955-4.99-4.424-1.33-7.849,1.33-10.978,1.99-1.87,2.93-3.28,3.5-3.992,7.99,1.883,1.75,3.937,6.81,5.988,7.98h4.99c3.316,1.19,6.718,4.57,8.983,6.99,3.955-1.08,4.175-2.46,8.982-3a18.927,18.927,0,0,0,4.99,7.99c7.439-2.87,14.015-5.76,17.965-11.98a76.048,76.048,0,0,0,4.99-8.98v-6.99c0.814-1.26,2.215-.51,3.992-1,2.61,5.43,2.371,9.97,10.978,9.98,3.675-2.77,11.185-2.05,15.969-.99,0.629,1.75.192,0.97,1,1.99-2.41,10.87-9.322,15.12-13.973,22.96q-1,7.98-2,15.97c-3.4,6.61-15.848,13.3-21.956,17.96-5.114,3.9-6.672,12.11-11.977,15.97-8.039,5.85-15.883,10.33-23.953,15.97-5.394,3.76-27.175,19.86-33.933,16.96-7.49-2.85-6.289-13.52-11.976-17.96q-11.974-6.5-23.953-12.98c-5.378-4.18-5.384-14.77-11.976-17.96-2.728-1.32-5.8.44-7.984-1v-1c-1.86-1.51-21.708-19.47-21.957-19.96q-1-4.98-2-9.98a2.9,2.9,0,0,0-1,1c-3.205,5.19-.952,9.23-8.982,9.98-1.509-2.54-2.954-4.82-5.989-5.99v3c8.273,3,14.962,16.11,19.961,22.95,4.564,6.25,13.436,9.88,17.965,15.97,3.231,4.34,4.009,11.61,5.988,16.97,4.452,1.8,9.282,3.46,11.976,6.98,1.9,2.49,3.293,6.49,5.988,7.99l22.955,3.99c8.729,2.52,9.724,7.78,21.957,7.98,3.6-4.37,9.9-5,14.97-7.98,8.052-4.74,22.081-15.93,31.937-16.97a28.863,28.863,0,0,1,1,8.99c-2.885,3.33-4.319,7.39-6.986,10.97-4.432,5.97-11.511,10.88-15.969,16.97-3.871,5.29-6.73,12.16-11.976,15.97-14.71,10.67-57.183,26.71-60.88,44.91-0.188,3.5,6.661,6.97,4.99,13.97-3.689,15.47-14.046,29.61-14.97,46.91,64.859-3.31,213.925-114.79,161.681-76.85,54.278-39.42,112.031-121.24,99.8-103.79,46.25-66.01,79.64-150.85,79.84-262.486h-0.99v-1ZM543.23,992.957c-4.614,3.442-2.819,10.033-9.98,10.983-5.763-5.405-18.084-7.03-28.943-6.991l-2-2.994c3.049-1.569,12.253-2.75,13.972-5.988-3.753-1.782-6.405-1.466-6.986-6.987,4.8-2.485,15.3-12.3,15.969-18.962-4.066-1.07-5.3-2.525-5.988-6.987,6.354-4.958-1.161-7.773,1-14.97,1.424-4.747,8.271-7.87,10.978-11.976h5.988a18.26,18.26,0,0,1,1,5.988c-4.077,2.31-1.464,2.871-2,5.988,2.29,0,2.587-.357,3.992,2.994h1c0.988,1.008-.983.987-1,1-2.351,3.252-5.454,3.74-6.986,7.984,6.649,5.445,5.917,26.561,4.99,32.935C541.389,986.912,542.8,988.046,543.23,992.957ZM508.3,859.22c-3.9-5.59-8.506-5.255-10.978-10.978,2.875-3.882,9.919-15.566,10.978-19.961,2.445,0.788,1.75.487,4.99,1,2.753,9.019,6.352,12.1,13.973,15.968,5.64,2.865,12.265,1.032,13.972,7.984-3.68,1.612-5.74,5.4-8.982,6.987C526.08,863.241,515.5,859.591,508.3,859.22Zm-2,89.823c4.554,0.5,7.6,2.268,8.982,5.988,0.876,1.293.893,2.462,1,4.991-4.407,4.064-7.051,12.832-12.974,14.97-3.339,1.9-12.243-.947-15.968-2-1.909-3.921-3.649-5.208-3.993-10.978,4.814-3.127,7.959-9.685,13.973-10.979C500.446,953.178,504.331,951.056,506.3,949.043Zm60.88,150.707a25,25,0,0,1,1,7.98c0.728,0.52-2.169,7.22-2.994,7.98v1c-3.094-.42-2.378-0.71-4.99,0v-1.99c-2.917-3.91-1.238-10.96,1-14.97h5.988Zm-2.994-8.99c-0.744-1.21-.136-0.99,0-3.99h4.99a21.486,21.486,0,0,1,1,6.99c-2.087,1.12-1.828,1.43-4.99,1.99A15.66,15.66,0,0,1,564.189,1090.76Zm95.743,593.7c17.635,37.19.128,0.11,17.477,37.31,38.928,3.81-.282-0.09,39.075,3.87-26.886,29.38-.26.08-26.888,29.32,5.249,37.13-.1.31,5.35,37.18-35-17.33-.033.04-34.888-17.44-35.015,17.48,0,.11-35.014,17.44,5.307-36.87.044-.03,5.351-37.18-26.771-29.44.025,0.12-26.889-29.32,38.03-4.04.019,0.09,38.2-4C660.073,1684.39,641.709,1721.57,659.932,1684.46Zm-149.993,9.08c15.4,32.48.111,0.1,15.258,32.58,33.988,3.33-.246-0.07,34.116,3.38-23.473,25.65-.227.07-23.475,25.6,4.583,32.41-.087.27,4.671,32.46-30.556-15.13-.029.04-30.46-15.22-30.571,15.26,0,.09-30.571,15.22,4.634-32.19.039-.02,4.672-32.46-23.374-25.7.022,0.1-23.476-25.6,33.2-3.53.017,0.08,33.353-3.49C510.062,1693.48,494.029,1725.95,509.939,1693.54Zm299,0c15.4,32.48.111,0.1,15.258,32.58,33.988,3.33-.246-0.07,34.116,3.38-23.473,25.65-.227.07-23.475,25.6,4.583,32.41-.087.27,4.671,32.46-30.556-15.13-.029.04-30.46-15.22-30.571,15.26,0,.09-30.571,15.22,4.634-32.19.039-.02,4.672-32.46-23.374-25.7.022,0.1-23.476-25.6,33.2-3.53.017,0.08,33.353-3.49C809.062,1693.48,793.029,1725.95,808.939,1693.54Zm-427.986,10.03c11.818,24.93.086,0.08,11.712,25.01,26.089,2.55-.189-0.06,26.187,2.59-18.018,19.69-.174.05-18.019,19.65,3.518,24.88-.067.21,3.585,24.92-23.454-11.62-.022.02-23.381-11.69-23.465,11.71,0,.07-23.465,11.69,3.557-24.71.029-.02,3.586-24.92-17.941-19.73.017,0.08-18.02-19.65,25.487-2.71.013,0.06,25.6-2.68C381.048,1703.52,368.741,1728.44,380.953,1703.57Zm-113.995,6.3c10.052,21.2.073,0.06,9.962,21.27,22.191,2.17-.161-0.05,22.274,2.21-15.325,16.74-.148.04-15.327,16.71,2.993,21.16-.056.18,3.05,21.19-19.95-9.88-.019.03-19.888-9.94-19.959,9.97,0,.06-19.959,9.94,3.025-21.01.025-.01,3.05-21.19-15.26-16.78.015,0.07-15.327-16.71,21.678-2.31.011,0.05,21.776-2.28C267.038,1709.83,256.57,1731.02,266.958,1709.87Zm681.995-6.3c11.818,24.93.086,0.08,11.712,25.01,26.089,2.55-.189-0.06,26.187,2.59-18.018,19.69-.174.05-18.019,19.65,3.518,24.88-.067.21,3.585,24.92-23.454-11.62-.022.02-23.381-11.69-23.465,11.71,0,.07-23.465,11.69,3.557-24.71.029-.02,3.586-24.92-17.941-19.73.017,0.08-18.02-19.65,25.487-2.71.013,0.06,25.6-2.68C949.048,1703.52,936.741,1728.44,948.953,1703.57Zm104.007,6.3c10.05,21.2.07,0.06,9.96,21.27,22.19,2.17-.16-0.05,22.27,2.21-15.32,16.74-.14.04-15.32,16.71,2.99,21.16-.06.18,3.05,21.19-19.95-9.88-.02.03-19.89-9.94-19.96,9.97,0,.06-19.96,9.94,3.03-21.01.03-.01,3.05-21.19-15.26-16.78.01,0.07-15.33-16.71,21.68-2.31.01,0.05,21.78-2.28C1053.04,1709.83,1042.57,1731.02,1052.96,1709.87Z"/>
</svg>
